<svg xmlns="http://www.w3.org/2000/svg" width="80" height="80" viewBox="0 0 80 80"><title>Asset 12</title><g id="Layer_2" data-name="Layer 2"><g id="Layer_1-2" data-name="Layer 1"><circle cx="40" cy="40" r="40" style="fill:#4c4c4c"/><path d="M38.46,44.18a.9.9,0,0,1-.24,0L17,38.36V55.12a43.51,43.51,0,0,1,8.57,1.22A35.84,35.84,0,0,1,38.31,62h.38a35.82,35.82,0,0,1,12.74-5.66A43.51,43.51,0,0,1,60,55.12V38.34L38.71,44.15A.91.91,0,0,1,38.46,44.18Z" style="fill:#fff"/><path d="M69,42.66V34.07l2.56-.71-32.7-9.08L6.16,33.35l32.7,9.09L66.65,35H67v7.65A4.31,4.31,0,0,0,65,45v6h6V45A3.21,3.21,0,0,0,69,42.66Z" style="fill:#fff"/></g></g></svg>