<svg xmlns="http://www.w3.org/2000/svg" width="80" height="80" viewBox="0 0 80 80"><title>Asset 11</title><g id="Layer_2" data-name="Layer 2"><g id="Layer_1-2" data-name="Layer 1"><circle cx="40" cy="40" r="40" style="fill:#4c4c4c"/><path d="M44.57,44c0-4.41,3.94-8,8.78-8H61V31.79A4,4,0,0,0,56.77,28H20.52A6,6,0,0,1,16,25.93V57.38A5.35,5.35,0,0,0,20.35,60H56.77A4,4,0,0,0,61,56.21V52H53.35C48.51,52,44.57,48.41,44.57,44Z" style="fill:#fff"/><path d="M61.34,38H53.43a6.29,6.29,0,0,0-6.58,6h0a6.29,6.29,0,0,0,6.58,6h7.85A1.65,1.65,0,0,0,63,48.44V39.56A1.6,1.6,0,0,0,61.34,38Zm-6.11,8.58a2.29,2.29,0,1,1,2.5-2.28A2.39,2.39,0,0,1,55.24,46.58Z" style="fill:#fff"/><path d="M20.63,27h6.76L50.2,17.73,53,27h4.45c0-.55,2.54.85,2.54.85v-.4S58.39,23.84,56.19,23H54.27l-2.8-7.77L28.93,24H24.15S19,26.1,20.63,27Z" style="fill:#fff"/></g></g></svg>