<svg xmlns="http://www.w3.org/2000/svg" xmlns:xlink="http://www.w3.org/1999/xlink" width="80.7" height="85.93" viewBox="0 0 80.7 85.93"><defs><clipPath id="clip-path"><circle cx="40.7" cy="40" r="40" style="fill:none"/></clipPath></defs><title>Asset 13</title><g id="Layer_2" data-name="Layer 2"><g id="Layer_1-2" data-name="Layer 1"><circle cx="40.7" cy="40" r="40" style="fill:#4c4c4c"/><g style="clip-path:url(#clip-path)"><path d="M11.43,41.42A11.59,11.59,0,0,1,12,43.33a15.53,15.53,0,0,0,1.76,2.78,10.71,10.71,0,0,0,2.93,3.08,9.81,9.81,0,0,0,2.05.88c4.57,1.39,8.07-2.89,9.53-5.28a31.94,31.94,0,0,0,1.17-3.08l1.47-1.47a5.78,5.78,0,0,0,.59-3.66,2.65,2.65,0,0,1-.44-.59h-.73c-.13-4.37-2.26-7.74-5.42-9.09C17.38,23.71,10.78,29,10.7,36c-.73,0-.84,0-1,.59a3.54,3.54,0,0,0,0,2.78C10,40.29,11,40.68,11.43,41.42Zm2.95-4c2.53-.54,6.79-1.92,8.09-3.56l.4,0A7.68,7.68,0,0,0,27,37.15a11.7,11.7,0,0,1-3.66,8.65,4.08,4.08,0,0,1-4.84.59c-1.79-1.15-2.95-3.8-3.66-6-.26-.81,0-1.84-.6-2.4ZM54.81,48l.88,1a8.59,8.59,0,0,0,2.2,1.47c2.79,1.18,7.18-.39,7.91-2.49h4.4l-.88-4.4.15-6.89c-1.12-5.07-2.88-7.5-7.91-8.65a7.28,7.28,0,0,0-3.22.29c-4.48,1.26-6,3.54-7,8.21l.15,6.89A29.3,29.3,0,0,0,50.56,48Zm-.88-8.57c.56-1.24,1.65.18,3.08-.15,2.35-.54,5.93-1.45,6.59-3.66.79,1,.62,2.57,1.61,3.37.21.16.76-.24,1.17,0l.44.15a4.61,4.61,0,0,1,0,2.34c-.38.91-1.4,1.05-1.91,1.76-1,1.38-2.16,5.47-5.13,4.69C57.6,47.36,57,45.36,56,43.54,55.5,42.67,52.6,41.47,53.93,39.43ZM31.51,52.08c.29.48,1.06.72,1.32,1.17l.29,1.32a11.25,11.25,0,0,0,3.66,4.69,8.73,8.73,0,0,0,2.05.88c3.6,1,6.56-2.39,7.62-4.1.53-.85.5-1.88,1-2.78.74-1.27,2.71-1.8,1.32-4.25h-.73a7.5,7.5,0,0,0-4.69-7.47c-6-2.27-11.22,1.95-11.14,7.47C30.65,49.1,30.89,51.08,31.51,52.08Zm11.28-4.73c.88.81.5,1.95,1.91,2.34-.21.62-.08,1.5-.29,2.2-.74,2.5-1.75,3.39-3.52,4.84-3.82.09-4.74-3.54-5.28-6.74C38.07,49.17,41.94,49.69,42.79,47.35Zm-11,11a8.8,8.8,0,0,0-.73-1.61,10.07,10.07,0,0,1-1.76-5,3.79,3.79,0,0,1-1.47-.59c-.48.52-.43,1.32-.73,2.05-.73,1.79-2.74,7-4,8.06-.09.25,0,.14-.15.29-.26-1.32-.13-4.88-.73-5.86-.07-1.26-1-1.33-1.61-2.05-.81.27-1.22.91-1.91,1.32,0,1-.39,5.74-.73,6.3-.09.25,0,.14-.15.29a16.36,16.36,0,0,0-1.32-2.34,34.35,34.35,0,0,1-3.22-8.06c-3,1.23-8.56,2.88-10.26,5.28-1.13,1.59-.94,4.11-1.47,6.3A68.5,68.5,0,0,0,0,77H24.62c.17-5,2-13,4.1-16.12C29.49,59.73,30.84,59.33,31.8,58.39ZM73.27,60c-.52-2.13-.36-4.48-1.47-6-1-1.33-3.21-2-4.84-2.64a28.21,28.21,0,0,1-3.08,6.3c-.91,1.23-2.53,2-3.37,3.22-2.07-.7-4.84-4.57-5.72-6.59a14,14,0,0,0-1-2.78c-.35-.19-2.25.65-2.64,1-.57.35-.48,1.38-.73,2.05a10,10,0,0,1-2.05,3.66c.88,1.07,2.43,1.44,3.22,2.64,1.93,2.93,4.09,11.4,4.1,16.12H75A78.42,78.42,0,0,0,73.27,60ZM57.34,52h-.72a6.43,6.43,0,0,1-.14,1h-.14c1,3.44,6.39,3,8,.47.12-.15.05,0,.14-.29a1.59,1.59,0,0,1-.29-.43c-1.33.13-1.68,1.19-2.75,1.59C59.73,55,57.95,53.7,57.34,52ZM48.07,62.88a5.44,5.44,0,0,0-2.93-1,8.65,8.65,0,0,1-.88,3.37c-.15.12,0,.05-.29.15-.3-.31-3.65-2.34-4.1-2.2-1,.29-2.36,1.66-3.52,2.05-.15.12,0,.05-.29.15-.39-1-.42-2.63-1-3.52-.92-.51-3.07,1.41-3.52,2.2-1.58,2.8-3.31,9.48-3.37,13.63,0,11,24,11,24,0a37.66,37.66,0,0,0-2.34-11C49.33,65.35,49.11,63.65,48.07,62.88Z" style="fill:#fff;fill-rule:evenodd"/><path d="M40.15,5.91A11.94,11.94,0,1,0,52.1,17.85,11.94,11.94,0,0,0,40.15,5.91Zm7.55,14a1.1,1.1,0,0,1-1.1,1.1H42.7v3.9a1.1,1.1,0,0,1-1.1,1.1H38.8a1.1,1.1,0,0,1-1.1-1.1V21H33.8a1.1,1.1,0,0,1-1.1-1.1V17.1A1.1,1.1,0,0,1,33.8,16h3.9V12.1A1.1,1.1,0,0,1,38.8,11h2.81a1.1,1.1,0,0,1,1.1,1.1V16h3.9a1.1,1.1,0,0,1,1.1,1.1Z" style="fill:#fff;fill-rule:evenodd"/></g></g></g></svg>